<svg xmlns="http://www.w3.org/2000/svg" width="33.5" height="33.5" viewBox="0 0 33.5 33.5"><defs><style>.a{fill:#bce0fd;}</style></defs><path class="a" d="M5.025,5.025A15.206,15.206,0,0,1,16.75,0,15.206,15.206,0,0,1,28.475,5.025,15.206,15.206,0,0,1,33.5,16.75a15.206,15.206,0,0,1-5.025,11.725A15.206,15.206,0,0,1,16.75,33.5,15.206,15.206,0,0,1,5.025,28.475C1.954,25.125,0,21.5,0,16.75A15.206,15.206,0,0,1,5.025,5.025ZM24.288,24.288l1.954-1.954-6.979-6.979L16.75,4.188H13.958V16.75A2.534,2.534,0,0,0,14.8,18.7a.975.975,0,0,0,.558.279Z"/></svg>